<?xml version="1.0" encoding="UTF-8" standalone="no"?>
<!-- Created with Inkscape (http://www.inkscape.org/) -->

<svg
   xmlns:dc="http://purl.org/dc/elements/1.1/"
   xmlns:cc="http://creativecommons.org/ns#"
   xmlns:rdf="http://www.w3.org/1999/02/22-rdf-syntax-ns#"
   xmlns:svg="http://www.w3.org/2000/svg"
   xmlns="http://www.w3.org/2000/svg"
   xmlns:sodipodi="http://sodipodi.sourceforge.net/DTD/sodipodi-0.dtd"
   xmlns:inkscape="http://www.inkscape.org/namespaces/inkscape"
   width="210mm"
   height="297mm"
   viewBox="0 0 210 297"
   version="1.1"
   id="svg137"
   inkscape:version="0.92.3 (2405546, 2018-03-11)"
   sodipodi:docname="triangle.svg">
  <defs
     id="defs131" />
  <sodipodi:namedview
     id="base"
     pagecolor="#ffffff"
     bordercolor="#666666"
     borderopacity="1.0"
     inkscape:pageopacity="0.0"
     inkscape:pageshadow="2"
     inkscape:zoom="0.35"
     inkscape:cx="357.14286"
     inkscape:cy="560"
     inkscape:document-units="mm"
     inkscape:current-layer="layer1"
     showgrid="false"
     inkscape:window-width="1920"
     inkscape:window-height="1025"
     inkscape:window-x="0"
     inkscape:window-y="27"
     inkscape:window-maximized="1" />
  <metadata
     id="metadata134">
    <rdf:RDF>
      <cc:Work
         rdf:about="">
        <dc:format>image/svg+xml</dc:format>
        <dc:type
           rdf:resource="http://purl.org/dc/dcmitype/StillImage" />
        <dc:title></dc:title>
      </cc:Work>
    </rdf:RDF>
  </metadata>
  <g
     inkscape:label="Layer 1"
     inkscape:groupmode="layer"
     id="layer1">
    <path
       id="path30"
       d="M 88.001814,65.565786 C 79.735991,83.065612 70.833479,100.18281 62.65203,117.72909 c -9.714431,22.74682 -18.542481,45.9532 -27.30045,69.16841 -3.506647,9.47183 -7.058813,18.92736 -11.062656,28.15662 -0.151793,0.41222 -1.955598,4.37844 -1.776974,4.71032 0.104726,0.19468 0.165391,-0.50391 0.366623,-0.54533 0.908384,-0.18697 1.846895,-0.0669 2.77035,-0.10039 11.723839,-0.22501 23.411703,-1.37114 35.121509,-1.96063 9.027128,-0.45443 15.900549,-0.60278 24.940087,-0.86252 20.939291,-0.49049 41.883861,-0.56964 62.826861,-0.68173 11.44406,-0.24339 22.8804,-0.78161 34.32201,-1.12504 5.21505,0.0865 10.38767,-0.43814 15.55645,-1.12184 2.02347,-0.30404 4.06151,-0.38577 6.10015,-0.44032 -4.5398,2.74504 -8.90883,5.86899 -13.61946,8.2351 -0.41898,0.21046 0.27882,-1.00157 0.22565,-1.50752 -0.12569,-1.19615 -0.40719,-2.37351 -0.75365,-3.51503 -1.9691,-6.48721 -5.29337,-12.24658 -8.475,-18.05291 -10.70702,-17.71513 -24.119,-33.12752 -36.7781,-49.10606 -11.7562,-14.84272 -22.81064,-30.33183 -33.2734,-46.31042 -4.47124,-6.539227 -8.63656,-13.314504 -12.913104,-20.00666 -1.695168,-2.478536 -3.226504,-5.08643 -4.964894,-7.528516 -1.66483,-2.259664 -3.520693,-4.332193 -5.36419,-6.410582 -1.654878,-1.728345 -3.207807,-3.533112 -4.62837,-5.497695 -1.242678,-1.691569 -2.5734,-3.288321 -3.408533,-5.280736 -0.407166,-1.052582 -1.287025,-1.452488 -1.943752,-2.277037 0,0 13.973561,-9.390244 13.973561,-9.390244 v 0 c 0.787767,0.89557 1.775595,1.548424 2.175763,2.808733 0.706357,1.87771 2.036794,3.304367 3.132318,4.906036 1.413922,1.895003 2.976111,3.620922 4.546741,5.356511 1.88214,2.125678 3.73796,4.286586 5.44953,6.584057 1.75308,2.476807 3.30129,5.116068 4.937,7.687288 4.05078,6.829097 8.01932,13.715193 12.3644,20.325181 10.14279,16.130244 20.9334,31.746614 32.68416,46.494244 12.80704,15.99995 26.36857,31.39777 37.33014,49.07074 3.94034,6.8874 8.32234,13.94345 10.24713,21.93098 0.21409,0.88846 1.11823,2.14656 0.46233,2.7107 -4.44058,3.81902 -9.71097,6.27948 -14.56642,9.41922 -1.98402,0.0657 -3.961,0.24645 -5.93381,0.488 -5.10382,0.56161 -10.21697,0.8155 -15.34789,0.76248 -11.30465,0.23901 -22.60631,0.65464 -33.91319,0.74549 -20.77369,-0.12655 -41.550261,-0.16436 -62.320782,0.32929 -9.934092,0.30497 -15.087299,0.39091 -25.006304,0.98368 -12.058927,0.72065 -24.081131,2.08978 -36.151179,2.5847 -2.225105,-0.23416 -3.6891049,0.39753 -4.8732142,-1.93468 -0.2968447,-0.58465 1.5631984,-4.585 1.8182116,-5.12741 4.3118836,-9.3294 8.3056286,-18.82871 11.9612046,-28.49957 9.066731,-23.18483 18.022531,-46.43085 27.517664,-69.40416 1.694785,-3.73083 3.328182,-7.4966 5.084354,-11.19248 6.39493,-13.458049 13.467051,-26.536437 19.156479,-40.40163 0,0 14.65443,-7.340037 14.65443,-7.340037 z"
       inkscape:connector-curvature="0"
       style="stroke-width:0.40267998" />
  </g>
</svg>
