<?xml version="1.0" encoding="UTF-8" standalone="no"?>
<!-- Created with Inkscape (http://www.inkscape.org/) -->

<svg
   xmlns:dc="http://purl.org/dc/elements/1.1/"
   xmlns:cc="http://creativecommons.org/ns#"
   xmlns:rdf="http://www.w3.org/1999/02/22-rdf-syntax-ns#"
   xmlns:svg="http://www.w3.org/2000/svg"
   xmlns="http://www.w3.org/2000/svg"
   xmlns:sodipodi="http://sodipodi.sourceforge.net/DTD/sodipodi-0.dtd"
   xmlns:inkscape="http://www.inkscape.org/namespaces/inkscape"
   width="2000px"
   height="1500px"
   viewBox="0 0 2000 1500"
   version="1.1"
   id="SVGRoot"
   inkscape:version="0.92.3 (2405546, 2018-03-11)"
   sodipodi:docname="teardrop.svg">
  <sodipodi:namedview
     id="base"
     pagecolor="#ffffff"
     bordercolor="#666666"
     borderopacity="1.0"
     inkscape:pageopacity="0.0"
     inkscape:pageshadow="2"
     inkscape:zoom="0.256"
     inkscape:cx="1000"
     inkscape:cy="750"
     inkscape:document-units="px"
     inkscape:current-layer="layer1"
     showgrid="false"
     inkscape:window-width="1920"
     inkscape:window-height="1025"
     inkscape:window-x="0"
     inkscape:window-y="27"
     inkscape:window-maximized="1" />
  <defs
     id="defs288" />
  <metadata
     id="metadata291">
    <rdf:RDF>
      <cc:Work
         rdf:about="">
        <dc:format>image/svg+xml</dc:format>
        <dc:type
           rdf:resource="http://purl.org/dc/dcmitype/StillImage" />
        <dc:title></dc:title>
      </cc:Work>
    </rdf:RDF>
  </metadata>
  <g
     id="layer1"
     inkscape:groupmode="layer"
     inkscape:label="Layer 1">
    <path
       id="path44"
       d="m 829.15038,1309.5291 c -8.33575,-6.8951 -17.55024,-12.6512 -26.49033,-18.7261 -10.33437,-6.7406 -20.74205,-13.3109 -31.79415,-18.8106 -13.32245,-6.3668 -27.0463,-11.8614 -40.80113,-17.2174 -7.59836,-2.7348 -15.32977,-4.8242 -22.85065,-7.7965 -11.53587,-4.3072 -23.10999,-8.5255 -34.53683,-13.1169 -8.1778,-2.7564 -15.42489,-7.327 -22.73397,-11.7787 -9.8722,-5.8349 -20.64473,-9.6618 -31.2249,-13.9486 -9.83199,-3.5552 -19.43301,-7.7177 -28.95402,-12.0294 -8.2114,-4.7286 -16.0258,-10.0531 -23.29689,-16.1228 -8.41051,-7.1939 -14.37291,-16.7594 -20.18212,-26.0611 -4.74319,-9.1347 -10.5521,-17.6855 -15.25489,-26.8364 -4.01401,-7.2687 -6.11448,-15.1136 -7.51578,-23.2399 -0.8208,-8.0137 -2.49811,-15.8481 -2.73653,-23.9077 0.13909,-15.7073 2.98001,-31.2207 4.91324,-46.7718 0.79018,-12.2829 2.555,-24.1867 5.74537,-36.07246 7.0162,-21.04871 16.10672,-41.32074 24.56973,-61.80854 6.47127,-14.56755 12.12608,-29.47347 18.44338,-44.10414 7.5168,-16.43017 15.67619,-32.5189 24.72589,-48.15443 8.3582,-14.10656 17.05501,-28.01454 25.9799,-41.76975 7.2567,-11.81846 14.55421,-23.61175 21.80512,-35.43366 12.358,-20.69944 25.49699,-40.91456 38.70217,-61.079 10.85053,-16.31347 22.00732,-32.40992 34.03794,-47.87527 8.40756,-11.43431 17.32686,-22.46429 27.1336,-32.72592 9.50287,-9.50832 18.46904,-19.52646 27.84189,-29.15771 11.64359,-11.65844 21.84416,-24.52464 31.40032,-37.91232 12.39194,-16.53591 23.35521,-34.04326 33.47112,-52.04198 8.67212,-16.32697 17.81367,-32.37633 27.4594,-48.14608 8.1532,-12.92915 15.89707,-26.11307 24.15798,-38.97348 6.67767,-10.10237 13.25556,-20.24791 19.14444,-30.83369 5.14016,-10.19009 10.76561,-20.11973 15.92051,-30.30075 4.42582,-8.90343 9.43975,-17.49998 14.63206,-25.97413 4.88504,-7.78002 10.51918,-15.00392 16.29392,-22.12855 4.05581,-5.14238 8.59351,-9.8619 12.97625,-14.71721 4.68095,-5.71661 9.40725,-11.39016 13.75371,-17.36792 3.94393,-5.60064 7.6063,-11.41566 10.21492,-17.76256 6.34505,-19.04739 -0.6754,-8.67859 40.54195,-27.39693 0.7767,-0.35274 5.114,5.17658 5.1764,5.25098 5.5223,7.67039 9.792,16.10996 14.3199,24.37793 4.8604,9.1836 9.4326,18.54494 13.7136,28.01267 4.6745,11.69668 9.4889,23.31691 13.0405,35.41211 3.2122,11.45907 6.7737,22.74256 8.7893,34.48884 1.0579,9.62642 3.3717,19.04666 6.2022,28.28916 4.4655,13.16741 9.9961,25.93411 15.4953,38.69308 6.5095,13.77388 10.6549,28.42982 15.7429,42.7342 3.8914,9.45917 7.2771,19.13177 11.376,28.50302 3.5248,8.26933 7.6176,16.28981 12.5144,23.82781 7.1063,9.33418 14.3165,18.64309 22.4345,27.12661 8.1619,9.04843 16.5925,17.84528 24.7918,26.85657 7.5651,8.73766 13.6951,18.50436 19.8784,28.22428 5.6829,8.35769 11.0238,16.95969 15.7713,25.88407 5.3865,10.25518 10.4832,20.66672 15.4571,31.12988 6.178,12.06394 11.9977,24.29253 17.1194,36.84097 4.6994,10.85496 9.0432,21.85892 13.6618,32.74972 4.0876,11.13499 8.7285,22.05522 12.4475,33.32141 3.1971,11.55425 8.5924,22.25825 13.5999,33.09008 6.0227,12.30425 11.1768,24.99371 16.1563,37.74773 4.7963,10.06424 9.0395,20.38121 13.4684,30.61066 4.6503,9.34945 8.2121,19.12305 11.4024,29.04763 2.2644,8.82747 4.1658,17.7594 5.5174,26.77376 1.1229,8.46641 1.2654,17.00583 1.3784,25.53101 0.045,8.60946 0,17.21904 0.045,25.82873 0.257,8.01815 -0.087,15.94665 -1.4865,23.84715 -2.8059,10.04712 -6.5624,19.83642 -10.4598,29.50932 -4.4758,11.0571 -9.7172,21.746 -15.721,32.0457 -4.7777,9.3464 -10.6367,18.0263 -16.4742,26.7273 -6.494,8.5056 -13.2397,16.8239 -20.0024,25.1184 -7.2567,8.9515 -14.9253,17.5369 -22.7493,25.9915 -8.0535,8.5583 -16.4784,16.7482 -24.8123,25.0295 -8.3769,8.3516 -17.2834,16.1263 -26.601,23.4046 -7.0039,4.8767 -13.9752,9.7601 -20.7307,14.9789 -20.5603,15.0821 -43.5976,26.1518 -66.7661,36.5105 -7.8705,3.8118 -16.2558,5.9135 -24.6501,8.1143 -12.6951,3.7476 -25.6143,6.3273 -38.6914,8.2761 -9.3358,1.1035 -18.6777,1.723 -27.9436,3.3659 -10.7773,1.9695 -21.2198,5.2812 -31.8407,7.8959 -7.19355,1.0371 -14.18,2.815 -21.10788,4.9856 -9.91294,2.9039 -19.37121,7.0155 -29.01732,10.6578 -6.79597,3.1485 -13.75635,5.8279 -20.54551,8.9906 -6.62816,2.5285 -12.69808,6.3202 -19.39767,8.639 -7.47326,3.9309 -15.16914,7.3731 -22.80907,10.9773 -6.42142,3.0519 -13.27219,4.8911 -20.28322,5.8957 -3.84945,0.3413 -7.34815,2.093 -11.20441,2.6373 -2.60674,0.4988 -5.25581,0.4163 -7.8943,0.424 -3.27798,-0.06 -6.55634,-0.041 -9.8347,-0.05 -3.13701,0 -6.27402,-0.019 -9.41141,-0.01 -1.55149,-0.01 -3.10299,0 -4.65448,-8e-4 0,0 34.50104,-25.0661 34.50104,-25.0661 v 0 c 1.55225,0 3.10488,0 4.65751,6e-4 3.13738,0.015 6.27515,0 9.41253,0.015 3.27118,0.01 6.54388,0.06 9.81392,-0.061 2.49034,-0.1024 4.95421,-0.4185 7.38029,-1.005 3.70696,-1.0236 7.37537,-2.1367 11.22935,-2.4662 6.71282,-1.3172 13.16372,-3.5942 19.31981,-6.5809 7.76429,-3.5401 15.2538,-7.6249 23.11862,-10.9282 6.39609,-2.9132 12.73171,-5.9578 19.19282,-8.7266 6.84472,-3.0261 13.74538,-5.934 20.67099,-8.7703 9.62532,-3.7619 19.28839,-7.3894 29.18439,-10.393 7.0133,-2.0372 14.1441,-3.4054 21.2912,-4.8734 10.586,-2.701 21.1291,-5.605 31.9018,-7.4981 9.277,-1.385 18.6089,-2.1168 27.9119,-3.2804 13.0579,-2.001 25.8734,-5.0225 38.5505,-8.7432 8.265,-2.2036 16.34,-4.9663 24.1235,-8.5433 1.7775,-0.7742 3.5577,-1.5433 5.3333,-2.3228 1.8988,-0.8336 3.8082,-1.6438 5.6894,-2.5163 1.9698,-0.9135 7.7147,-3.9716 5.8612,-2.8409 -10.1162,6.1712 -20.4718,11.9422 -30.6709,17.9755 -1.4892,0.8808 3.0599,-1.6184 4.5381,-2.517 1.2884,-0.7832 2.5025,-1.6826 3.7538,-2.5239 6.8856,-5.1207 13.4544,-10.675 20.9012,-15.0144 9.3947,-7.1201 18.4849,-14.5979 26.8199,-22.9587 8.4612,-8.1193 16.6567,-16.5098 24.9275,-24.8219 7.7023,-8.508 15.6366,-16.7928 22.8011,-25.7743 6.7997,-8.1758 13.2015,-16.6713 20.1248,-24.7464 5.904,-8.6 11.9029,-17.162 16.5993,-26.495 6.07,-10.1312 11.6478,-20.4953 16.0106,-31.4996 3.8924,-9.4323 7.3334,-19.0354 10.5864,-28.7012 1.7707,-7.6021 2.0919,-15.28316 1.8232,-23.07197 0.072,-8.60398 0.087,-17.20762 0.038,-25.81183 -0.064,-8.35563 -0.1851,-16.73001 -1.1217,-25.04221 -1.1833,-8.82867 -3.1007,-17.53171 -5.1254,-26.19942 -3.027,-9.83769 -6.5151,-19.4908 -11.1515,-28.70063 -4.3922,-10.31071 -8.6475,-20.68638 -13.4471,-30.81737 -4.766,-12.73322 -9.8945,-25.33893 -15.8926,-37.54741 -5.1802,-10.93943 -10.8623,-21.70307 -14.0311,-33.45775 -3.5082,-11.20946 -8.2541,-21.9537 -12.2309,-33.00076 -4.6655,-10.90105 -8.9632,-21.95282 -13.623,-32.85507 -5.0396,-12.49688 -10.7894,-24.65944 -16.9311,-36.65523 -4.9969,-10.39078 -10.2985,-20.62251 -15.6726,-30.82185 -4.611,-8.86655 -9.9054,-17.36877 -15.4446,-25.68195 -6.022,-9.5507 -12.1406,-19.03432 -19.5606,-27.58738 -8.0791,-9.06423 -16.4844,-17.83948 -24.6743,-26.80454 -8.2038,-8.74715 -15.6268,-18.19896 -22.9221,-27.70853 -5.0857,-7.69225 -9.4087,-15.87948 -12.918,-24.41326 -4.1458,-9.47876 -7.4865,-19.28682 -11.3507,-28.88239 -4.9137,-14.27958 -8.7432,-28.94896 -15.369,-42.59945 -5.5805,-12.86527 -11.407,-25.64272 -16.0294,-38.896 -3.0074,-9.3738 -5.6205,-18.97065 -6.5371,-28.80064 -1.7438,-11.64623 -5.1333,-22.83215 -8.3656,-34.13651 -3.3815,-11.94112 -8.2428,-23.31794 -12.9177,-34.79972 -4.1892,-9.38088 -8.7594,-18.62458 -13.5689,-27.7004 -4.408,-7.94909 -8.4215,-16.1853 -14.0069,-23.40219 -0.6501,-0.62886 -1.1853,-1.40432 -1.9506,-1.88658 -0.3821,-0.24091 -1.72501,0.0516 -1.3425,-0.18864 11.4992,-7.21933 23.3583,-13.84918 34.9535,-20.91318 0.4263,-0.25988 -1.1286,0.0762 -1.4189,0.48283 -0.9535,1.33732 0.038,3.53573 -1.1607,4.7893 -2.468,6.6877 -5.7902,12.93515 -9.9567,18.73693 -4.0952,6.20387 -8.8559,11.87789 -13.5024,17.66842 -4.0056,5.20278 -8.9995,9.55921 -13.07306,14.7228 -5.82727,7.03116 -11.6742,14.00091 -16.62614,21.70189 -5.376,8.275 -10.28787,16.87931 -14.82482,25.64181 -5.24938,10.19158 -10.8223,20.19626 -15.98853,30.43497 -5.6606,10.8261 -12.30917,21.0335 -19.07074,31.19783 -8.55043,12.74591 -16.1949,26.06093 -24.46526,38.98779 -9.82488,15.66876 -19.02766,31.69972 -27.69525,48.03883 -10.00403,18.14901 -20.89096,35.81732 -33.29386,52.44159 -9.36075,13.49218 -19.16522,26.63049 -30.71735,38.36026 -9.47187,9.56907 -18.40781,19.63098 -27.90123,29.18404 -10.05581,9.95626 -19.03294,20.91138 -27.38683,32.32888 -12.25512,15.4761 -23.85525,31.42082 -34.83175,47.83901 -13.14785,19.94475 -26.20687,39.96476 -38.15343,60.66077 -7.08192,11.96391 -14.46712,23.74514 -21.7683,35.57593 -8.9534,13.70705 -17.63482,27.58332 -26.09223,41.59974 -9.14389,15.49036 -17.50707,31.36547 -24.99099,47.73097 -6.39598,14.60508 -11.62239,29.68751 -18.5317,44.07489 -8.53248,20.29005 -17.83219,40.3031 -24.69839,61.25231 -3.10578,11.70489 -4.78408,23.43777 -5.8411,35.49487 -1.9897,15.3096 -5.012,30.5894 -4.9279,46.0775 0.11981,7.8804 2.0705,15.4754 2.55942,23.3389 1.19028,7.7665 3.1406,15.169 7.02138,22.0696 4.3694,9.1701 9.96109,17.7103 14.69571,26.6901 5.55738,8.9771 11.5576,17.9283 19.75377,24.7312 7.02543,5.7725 14.48232,11.0387 22.57463,15.2259 9.49368,4.1953 19.00127,8.3645 28.73079,11.9901 10.81149,4.3435 21.731,8.4669 31.83561,14.3504 7.13079,4.2595 14.24885,8.5525 22.11934,11.3584 11.47389,4.5368 23.02035,8.9035 34.68586,12.9228 7.55906,2.7164 15.34677,4.7635 22.71912,7.9879 13.68794,5.6405 27.42841,11.1855 40.74671,17.6673 11.23389,5.6358 22.03086,12.0839 32.496,19.0458 9.02664,6.2546 18.19502,12.32 26.91779,18.9931 0,0 -36.00567,22.4465 -36.00567,22.4465 z"
       inkscape:connector-curvature="0"
       style="stroke-width:0.99999994" />
  </g>
</svg>
